# xmcd
#
# Track frame offsets: 
#        150
#        14305
#        27192
#        39605
#        55137
#        65035
#        77192
#        89772
#        104525
#        117505
#
# Disc length: 1706 seconds
#
# Revision: 1
# Processed by: cddbd v1.5.2PL0 Copyright (c) Steve Scherf et al.
# Submitted via: ExactAudioCopy v0.99pb3
#
DISCID=8906a80a
DTITLE=Various Artist - The 101 Greatest Country Hits Vol 9: Country 
DTITLE=Classics
DYEAR=1994
DGENRE=Country
TTITLE0=Jeanie C. Riley - Harper Valley P.T.A.
TTITLE1=Claude King - Wolverton Mountain
TTITLE2=Jack Blanchard and Misty Morgan - Tennessee Birdwalk
TTITLE3=Cal Smith - Country Bumpkin
TTITLE4=Ned Miller - From A Jack To A King
TTITLE5=Johnny Paycheck - Take This Job And Shove It
TTITLE6=Porter Wagner - The Carroll County Accident
TTITLE7=Sandy Posey - Put Your Hand In The Hand
TTITLE8=Ace Cannon - Hey, Good lookin'
TTITLE9=Little Jimmy Dickens - May The Bird Of Paradise Fly Up Your No
TTITLE9=se
EXTD=
EXTT0=JEANNIE C. RILEY
EXTT1=CLAUDE KING
EXTT2=JACK BLANCHARD and MISTY MORGAN
EXTT3=CAL SMITH
EXTT4=NED MILLER
EXTT5=JOHNNY PAYCHECK
EXTT6=PORTER WAGONER
EXTT7=SANDY POSEY
EXTT8=ACE CANNON
EXTT9=LITTLE JIMMY DICKENS
PLAYORDER=
